<svg id="svg" version="1.1" xmlns="http://www.w3.org/2000/svg" viewBox="0 0 412 605" style="display: block;"><path d="M0 0 C135.96 0 271.92 0 412 0 C412 199.65 412 399.3 412 605 C276.04 605 140.08 605 0 605 C0 405.35 0 205.7 0 0 Z " transform="translate(0,0)" style="fill: #000000;"/><path d="M0 0 C147.16357527 0 147.16357527 0 162.8125 4.0625 C163.6281543 4.27237549 164.44380859 4.48225098 165.28417969 4.69848633 C201.7112699 14.64481658 233.37974777 39.93826814 253 72 C263.38505206 90.48503394 269.65815589 109.96843849 272 131 C272.08121094 131.71897461 272.16242188 132.43794922 272.24609375 133.17871094 C275.17636526 161.15766299 267.78299981 190.1226484 253 214 C252.12794922 215.41925781 252.12794922 215.41925781 251.23828125 216.8671875 C225.94087439 256.37835035 185.68002745 275.28505709 143 291 C141.53576155 291.54056623 140.07157095 292.08126207 138.60742188 292.62207031 C133.80171 294.39640371 128.9946912 296.16717922 124.1875 297.9375 C122.9697287 298.38610886 122.9697287 298.38610886 121.72735596 298.84378052 C119.28445099 299.74369427 116.84145204 300.64335251 114.3984375 301.54296875 C113.60116241 301.83669876 112.80388733 302.13042877 111.98245239 302.43305969 C108.24879358 303.80778609 104.51384226 305.1786358 100.77441406 306.53759766 C75.01299287 315.62469044 75.01299287 315.62469044 52 330 C51.34 330 50.68 330 50 330 C49.56880859 330.86625 49.56880859 330.86625 49.12890625 331.75 C48.41597685 333.17092503 47.69558512 334.58815251 46.96484375 336 C46.62582031 336.66 46.28679687 337.32 45.9375 338 C45.59589844 338.66 45.25429687 339.32 44.90234375 340 C42.86775897 344.50955587 42.84831313 348.84723694 42.84178162 353.7321167 C42.83684364 354.5154929 42.83190566 355.2988691 42.82681805 356.10598397 C42.8114499 358.73308875 42.80308427 361.36016909 42.79467773 363.98730469 C42.78509868 365.86964635 42.77508858 367.75198587 42.76467896 369.63432312 C42.73762686 374.7475458 42.71661891 379.86077771 42.69667697 384.9740324 C42.67481933 390.31654737 42.64742955 395.65903387 42.62062073 401.00152588 C42.57069086 411.11971895 42.5257531 421.23792783 42.48259836 431.35615182 C42.43322852 442.87478667 42.37830944 454.39339295 42.32291877 465.91200018 C42.2090942 489.60797347 42.10225617 513.30397416 42 537 C38.73886087 538.63056957 35.14520683 538.14171523 31.5625 538.1328125 C30.72662354 538.13376923 29.89074707 538.13472595 29.02954102 538.13571167 C27.26090418 538.13639268 25.49226485 538.13454391 23.72363281 538.13037109 C21.01101079 538.12502171 18.29855435 538.13031875 15.5859375 538.13671875 C13.8697913 538.13605795 12.1536452 538.13477676 10.4375 538.1328125 C9.62289307 538.13483673 8.80828613 538.13686096 7.96899414 538.13894653 C2.22991928 538.11495964 2.22991928 538.11495964 0 537 C0 359.79 0 182.58 0 0 Z " transform="translate(68,31)" style="fill: #D5C4BC;"/><path d="M0 0 C122.56923077 0 122.56923077 0 151 24 C151.88300781 24.74378906 152.76601563 25.48757812 153.67578125 26.25390625 C167.38545934 38.21606847 176.65162508 51.90409458 183 69 C183.24411621 69.61810547 183.48823242 70.23621094 183.73974609 70.87304688 C192.16985103 92.76797993 190.36630115 119.95886983 181.203125 141.28125 C177.22864596 149.99231216 172.11948533 157.6271261 166 165 C165.30261719 165.86109375 164.60523438 166.7221875 163.88671875 167.609375 C148.29154877 185.97005044 124.95396501 197.07205423 103 206 C101.91525391 206.44504883 100.83050781 206.89009766 99.71289062 207.34863281 C91.10895164 210.8530551 82.42281527 214.06161508 73.6524353 217.12338257 C71.43348875 217.89822533 69.21625236 218.67781527 66.99926758 219.45825195 C60.4825616 221.74935249 53.96075168 224.02252433 47.41796875 226.23828125 C26.13753515 233.33276417 26.13753515 233.33276417 6.09375 243.265625 C3 245 3 245 0 245 C0 164.15 0 83.3 0 0 Z " transform="translate(110,72)" style="fill: #000000;"/><path d="M0 0 C3.04337353 3.04337353 2.74318281 6.76614426 3.125 10.875 C3.2084668 11.73834961 3.29193359 12.60169922 3.37792969 13.49121094 C4.77202293 28.70105273 3.57480947 42.76476664 -0.625 57.4375 C-4.15794012 70.07494636 -4.91115633 81.87771821 1 94 C1.69416016 95.46759766 1.69416016 95.46759766 2.40234375 96.96484375 C6.23476365 104.54535158 10.88644916 111.31999206 16 118.08837891 C18.89012336 122.00394027 20.87501332 124.95641972 21 130 C17.73288408 137.31211658 10.03433332 141.67823149 3 145 C3.48292622 148.01828886 4.42535864 149.6960414 6.0625 152.375 C8.0316478 155.75789494 8.675154 158.03347028 8 162 C6.125 165.375 6.125 165.375 4 168 C3.34 168 2.68 168 2 168 C2.48484276 172.64586892 2.48484276 172.64586892 4 177 C4.3695309 180.91702753 4.43711062 183.24816974 2.4375 186.6875 C-0.64898989 189.61570836 -4.55645581 193 -9 193 C-8.7834375 194.18142578 -8.7834375 194.18142578 -8.5625 195.38671875 C-5.19937404 215.12172871 -5.19937404 215.12172871 -8.625 222.5 C-13.8287305 227.97761105 -17.7038952 231.07908965 -25.54663086 231.34277344 C-35.36543402 231.48638363 -42.89798536 229.69539695 -52 226 C-52.98355469 225.608125 -53.96710938 225.21625 -54.98046875 224.8125 C-56.61100509 224.1573953 -58.23613236 223.48839246 -59.8515625 222.796875 C-75.97039958 216.81825179 -96.02422166 220.56460933 -111.1328125 227.421875 C-116.57233282 230.17868911 -121.0467109 233.45858718 -125.44140625 237.6796875 C-127 239 -127 239 -129 239 C-129 239.66 -129 240.32 -129 241 C-129.66 241 -130.32 241 -131 241 C-131 241.66 -131 242.32 -131 243 C-131.66 243 -132.32 243 -133 243 C-133.25652344 243.58265625 -133.51304687 244.1653125 -133.77734375 244.765625 C-135.11020268 247.20139275 -136.61182632 248.77962255 -138.5625 250.75 C-149.07870722 262.4832728 -154.11837591 276.93780468 -159.14746094 291.61767578 C-160.29172198 294.81518415 -161.61391967 297.90045226 -163 301 C-163.33 301 -163.66 301 -164 301 C-164.46783086 297.3553257 -164.92217267 293.70906622 -165.375 290.0625 C-165.50132812 289.07958984 -165.62765625 288.09667969 -165.7578125 287.08398438 C-168.35599743 265.97373184 -169.37816127 244.94939351 -169.3125 223.6875 C-169.31100952 222.48620453 -169.30951904 221.28490906 -169.3079834 220.04721069 C-169.26895304 202.52622098 -168.9155125 185.31432264 -166 168 C-165.77521973 166.61119629 -165.77521973 166.61119629 -165.54589844 165.19433594 C-162.78229667 148.58338772 -158.44259174 133.16388762 -149 119 C-148.34 119 -147.68 119 -147 119 C-146.74089844 118.41476562 -146.48179687 117.82953125 -146.21484375 117.2265625 C-137.2442448 100.78527182 -109.17956069 93.42032077 -92.70068359 87.83813477 C-58.55677446 76.24278646 -27.99807406 61.68483058 -10.5703125 28.2578125 C-7.4979992 21.82694553 -5.28426636 15.1574175 -3.11328125 8.3828125 C-2.1753479 5.53281153 -1.15264794 2.76846035 0 0 Z " transform="translate(319,266)" style="fill: #DDCCC2;"/><path d="M0 0 C0.66 0 1.32 0 2 0 C0.9730742 3.50866316 -0.25132479 6.56470798 -2.125 9.6875 C-4.24629911 12.80073718 -4.24629911 12.80073718 -4 16 C-5.25 17.375 -5.25 17.375 -7 19 C-7.61875 19.78375 -8.2375 20.5675 -8.875 21.375 C-12.76935434 26.18567301 -16.81130723 29.64896925 -22 33 C-23.68083079 34.31543279 -25.3524116 35.64316249 -27 37 C-25.74139893 32.15922664 -24.24040568 29.88540647 -20.375 26.75 C-12.16781031 19.67646529 -6.5897867 11.77276893 -1.4453125 2.2734375 C-0.96835937 1.52320313 -0.49140625 0.77296875 0 0 Z " transform="translate(308,295)" style="fill: #B8AEAA;"/><path d="M0 0 C0 0.66 0 1.32 0 2 C-0.53109375 2.24234375 -1.0621875 2.4846875 -1.609375 2.734375 C-5.73992624 4.69412559 -8.97110547 6.46628972 -12 10 C-12.66 9.67 -13.32 9.34 -14 9 C-14 9.66 -14 10.32 -14 11 C-15.62553283 12.70680947 -17.29115995 14.37660195 -19 16 C-19.66 15.67 -20.32 15.34 -21 15 C-17.22368342 7.96231911 -8.34492711 0 0 0 Z " transform="translate(195,368)" style="fill: #B8AFAA;"/><path d="M0 0 C2 2 2 2 2.1953125 4.1640625 C2.17210937 4.97617187 2.14890625 5.78828125 2.125 6.625 C2.10695313 7.44226563 2.08890625 8.25953125 2.0703125 9.1015625 C2.03550781 10.04128906 2.03550781 10.04128906 2 11 C0.35 11.66 -1.3 12.32 -3 13 C-2.52060632 8.28596212 -2.03165952 4.33420699 0 0 Z " transform="translate(319,266)" style="fill: #A9A3A0;"/><path d="M0 0 C-4.82029598 4.82029598 -4.82029598 4.82029598 -8.1796875 5.33203125 C-10.1228691 5.31474316 -12.06392229 5.16690325 -14 5 C-14 4.34 -14 3.68 -14 3 C-12.42274653 2.29866401 -10.83788667 1.614417 -9.25 0.9375 C-8.36828125 0.55464844 -7.4865625 0.17179687 -6.578125 -0.22265625 C-3.84743691 -1.04600008 -2.63098653 -0.9773992 0 0 Z " transform="translate(143,305)" style="fill: #BBB1AD;"/><path d="M0 0 C-0.69867188 0.48210937 -1.39734375 0.96421875 -2.1171875 1.4609375 C-3.48230469 2.40839844 -3.48230469 2.40839844 -4.875 3.375 C-5.77992188 4.00148438 -6.68484375 4.62796875 -7.6171875 5.2734375 C-10.03494125 6.9298095 -10.03494125 6.9298095 -12 9 C-12.99 9.33 -13.98 9.66 -15 10 C-14.8359375 8.23828125 -14.8359375 8.23828125 -14 6 C-11.6015625 4.04296875 -11.6015625 4.04296875 -8.625 2.1875 C-7.64789063 1.56230469 -6.67078125 0.93710938 -5.6640625 0.29296875 C-3 -1 -3 -1 0 0 Z M-18 10 C-17.01 10.33 -16.02 10.66 -15 11 C-15.66 11.66 -16.32 12.32 -17 13 C-17.33 12.01 -17.66 11.02 -18 10 Z " transform="translate(264,252)" style="fill: #C1B6B2;"/><path d="M0 0 C0 0.99 0 1.98 0 3 C-1.32 3 -2.64 3 -4 3 C-4.33 3.66 -4.66 4.32 -5 5 C-6.98 5 -8.96 5 -11 5 C-11 4.01 -11 3.02 -11 2 C-7.17679443 0.57741188 -4.08718695 -0.24042276 0 0 Z " transform="translate(234,353)" style="fill: #B9AFAC;"/><path d="M0 0 C0.66 0 1.32 0 2 0 C3 3 3 3 1.8125 6.4375 C0.15624553 9.69289671 -1.26548253 11.64265735 -4 14 C-3.21824485 9.15311808 -1.60155722 4.6233633 0 0 Z " transform="translate(314,280)" style="fill: #B2AAA6;"/><path d="M0 0 C0 4.13781054 -1.71509607 5.20919996 -4.5 8.1875 C-5.3353125 9.08855469 -6.170625 9.98960937 -7.03125 10.91796875 C-7.6809375 11.60503906 -8.330625 12.29210937 -9 13 C-9.33 12.34 -9.66 11.68 -10 11 C-7.83747339 6.13431512 -4.06474743 3.24066165 0 0 Z " transform="translate(291,319)" style="fill: #BCB3AE;"/><path d="M0 0 C0.66 1.32 1.32 2.64 2 4 C1.34 4 0.68 4 0 4 C-0.12375 4.763125 -0.2475 5.52625 -0.375 6.3125 C-1 9 -1 9 -3 12 C-3.66 12 -4.32 12 -5 12 C-4.53981898 7.85837086 -4.14493915 5.75182176 -1 3 C-0.67 2.01 -0.34 1.02 0 0 Z " transform="translate(292,212)" style="fill: #C0B6B1;"/><path d="M0 0 C0.66 0.33 1.32 0.66 2 1 C-0.77762123 4.60062011 -3.73991357 7.83047153 -7 11 C-7.66 10.67 -8.32 10.34 -9 10 C-6.43571997 5.82117329 -3.98069267 2.87494471 0 0 Z " transform="translate(183,373)" style="fill: #C3BBB7;"/><path d="M0 0 C1.39195915 4.17587745 -0.17676781 6.13474776 -2 10 C-2.33 10 -2.66 10 -3 10 C-3.75 7.25 -3.75 7.25 -4 4 C-2.0625 1.625 -2.0625 1.625 0 0 Z " transform="translate(158,557)" style="fill: #CDC4C1;"/><path d="M0 0 C-0.33 0.66 -0.66 1.32 -1 2 C-1.99 2 -2.98 2 -4 2 C-4.33 2.66 -4.66 3.32 -5 4 C-6.65 4 -8.3 4 -10 4 C-10 3.34 -10 2.68 -10 2 C-6.49223216 0.39644899 -3.85645121 -0.22036864 0 0 Z " transform="translate(220,358)" style="fill: #BBB3AF;"/><path d="M0 0 C6.76923077 3.44615385 6.76923077 3.44615385 7.9375 6.25 C7.958125 6.8275 7.97875 7.405 8 8 C4.63820226 6.55922954 2.40843732 4.75249979 0 2 C0 1.34 0 0.68 0 0 Z " transform="translate(264,97)" style="fill: #D5CBC6;"/><path d="M0 0 C0.99 0 1.98 0 3 0 C2.34 1.65 1.68 3.3 1 5 C0.34 5 -0.32 5 -1 5 C-1.33 5.66 -1.66 6.32 -2 7 C-1.125 2.25 -1.125 2.25 0 0 Z " transform="translate(170,385)" style="fill: #BBB3AF;"/><path d="M0 0 C0.99 0.66 1.98 1.32 3 2 C-3.75 6 -3.75 6 -6 6 C-6 5.34 -6 4.68 -6 4 C-4.35 3.67 -2.7 3.34 -1 3 C-0.67 2.01 -0.34 1.02 0 0 Z " transform="translate(134,348)" style="fill: #D4CCC7;"/></svg>