<?xml version="1.0" encoding="UTF-8"?>
<!-- Generator: visioncortex VTracer 0.6.3 -->
<svg version="1.1" xmlns="http://www.w3.org/2000/svg" width="1280" height="719">
<path d="M0 0 C422.4 0 844.8 0 1280 0 C1280 237.27 1280 474.54 1280 719 C857.6 719 435.2 719 0 719 C0 481.73 0 244.46 0 0 Z " fill="#F1F2F3" transform="translate(0,0)"/>
<path d="M0 0 C0.9 0 1.8 0 2.72 0.01 C3.67 0 4.61 -0 5.59 -0.01 C8.73 -0.02 11.87 -0.02 15.02 -0.02 C17.21 -0.02 19.41 -0.03 21.6 -0.03 C26.22 -0.04 30.83 -0.04 35.45 -0.03 C41.31 -0.03 47.18 -0.04 53.04 -0.07 C57.59 -0.08 62.13 -0.08 66.67 -0.08 C68.83 -0.08 70.99 -0.09 73.15 -0.1 C106.29 -0.23 134.81 6.33 159.62 29.28 C160.36 29.96 161.11 30.64 161.88 31.34 C181.68 50.12 195.38 78.31 196.79 105.73 C197.34 137.67 197.34 137.67 192.62 152.28 C192.25 153.42 191.89 154.55 191.52 155.72 C182.47 181.24 165.07 202.78 141.62 216.28 C140.44 216.99 139.26 217.69 138.08 218.4 C126.41 225.29 114.12 230.6 101.55 235.66 C100.39 236.13 99.22 236.6 98.02 237.09 C94.55 238.49 91.08 239.89 87.62 241.28 C85.68 242.06 83.74 242.85 81.81 243.63 C68.14 249.14 68.14 249.14 61.87 251.28 C49.6 255.66 32.15 262.48 25.52 274.09 C23.35 279.36 22.37 284.25 22.34 289.93 C22.33 291.23 22.32 292.53 22.3 293.86 C22.3 295.28 22.3 296.7 22.3 298.12 C22.29 299.63 22.28 301.14 22.27 302.65 C22.24 306.73 22.22 310.81 22.21 314.89 C22.2 319.16 22.17 323.43 22.14 327.7 C22.1 335.77 22.06 343.85 22.03 351.93 C21.99 361.13 21.94 370.33 21.89 379.53 C21.79 398.45 21.7 417.36 21.62 436.28 C17.5 436.31 13.39 436.33 9.28 436.34 C7.88 436.34 6.48 436.35 5.08 436.36 C3.07 436.37 1.07 436.37 -0.94 436.38 C-2.15 436.39 -3.36 436.39 -4.61 436.4 C-7.38 436.28 -7.38 436.28 -8.38 435.28 C-8.48 432.99 -8.51 430.7 -8.51 428.4 C-8.51 427.67 -8.52 426.94 -8.52 426.19 C-8.52 423.7 -8.52 421.22 -8.52 418.74 C-8.52 416.95 -8.52 415.17 -8.52 413.38 C-8.53 408.45 -8.53 403.52 -8.53 398.59 C-8.53 393.28 -8.53 387.97 -8.54 382.66 C-8.55 372.26 -8.55 361.85 -8.55 351.44 C-8.55 342.98 -8.55 334.53 -8.56 326.07 C-8.57 302.13 -8.57 278.18 -8.57 254.24 C-8.57 252.3 -8.57 252.3 -8.57 250.32 C-8.57 249.03 -8.57 247.73 -8.57 246.4 C-8.57 225.42 -8.58 204.44 -8.59 183.46 C-8.61 161.95 -8.61 140.43 -8.61 118.92 C-8.61 106.83 -8.62 94.74 -8.63 82.65 C-8.64 72.36 -8.64 62.07 -8.63 51.78 C-8.63 46.52 -8.63 41.27 -8.64 36.01 C-8.64 31.21 -8.64 26.4 -8.63 21.6 C-8.63 19.85 -8.63 18.11 -8.64 16.36 C-8.65 14 -8.64 11.65 -8.63 9.29 C-8.63 7.97 -8.63 6.66 -8.63 5.31 C-8.16 -0.49 -5.07 0.04 0 0 Z " fill="#6D6FAE" transform="translate(181.3839111328125,167.71783447265625)"/>
<path d="M0 0 C6.33 5.46 11.43 11.36 16.23 18.2 C17.76 20.61 17.76 20.61 19.97 21.53 C19.97 20.87 19.97 20.21 19.97 19.53 C19.97 9.2 19.97 -1.14 19.97 -11.47 C22.62 -12.79 24.64 -12.6 27.6 -12.6 C28.72 -12.6 29.84 -12.6 30.99 -12.61 C32.16 -12.6 33.33 -12.6 34.54 -12.59 C35.71 -12.6 36.89 -12.6 38.1 -12.61 C39.21 -12.6 40.33 -12.6 41.48 -12.6 C42.51 -12.6 43.54 -12.6 44.6 -12.6 C46.97 -12.47 46.97 -12.47 47.97 -11.47 C48.07 -8.84 48.1 -6.23 48.09 -3.6 C48.09 -2.35 48.09 -2.35 48.1 -1.08 C48.1 1.74 48.09 4.56 48.09 7.37 C48.09 9.38 48.09 11.39 48.09 13.4 C48.09 18.88 48.08 24.35 48.07 29.83 C48.07 35.54 48.07 41.26 48.07 46.97 C48.06 57.8 48.05 68.63 48.04 79.46 C48.03 91.79 48.03 104.11 48.02 116.44 C48.01 141.8 47.99 167.17 47.97 192.53 C39.06 192.53 30.15 192.53 20.97 192.53 C18.72 181.28 18.72 181.28 18.78 175.87 C18.79 174.16 18.79 174.16 18.8 172.41 C18.82 170.68 18.82 170.68 18.85 168.91 C18.86 167.71 18.87 166.52 18.88 165.29 C18.9 162.37 18.93 159.45 18.97 156.53 C18.31 156.53 17.65 156.53 16.97 156.53 C16.88 157.09 16.78 157.64 16.69 158.21 C12.32 172.38 -3.45 183.8 -16.03 190.53 C-39.23 201.58 -67.34 199.59 -91.13 191.17 C-102.76 186.5 -113.69 179.87 -123.03 171.53 C-123.84 170.85 -124.66 170.16 -125.5 169.46 C-146.74 151.2 -159.04 125.72 -161.24 97.85 C-161.84 86.04 -160.69 75.04 -158.03 63.53 C-157.87 62.67 -157.72 61.82 -157.56 60.93 C-156.41 54.66 -153.81 49.23 -151.03 43.53 C-150.33 42.02 -150.33 42.02 -149.61 40.48 C-144.45 29.61 -137.17 21.3 -129.03 12.53 C-128.2 11.61 -128.2 11.61 -127.36 10.66 C-95.82 -23.14 -35.97 -29.33 0 0 Z " fill="#000102" transform="translate(835.02734375,349.46875)"/>
<path d="M0 0 C23.85 20.04 36.74 47.38 40.56 77.94 C40.56 84.87 40.56 91.8 40.56 98.94 C-44.58 99.43 -44.58 99.43 -131.44 99.94 C-129.33 120.97 -120.93 137.59 -104.5 151.19 C-102.83 152.46 -101.14 153.71 -99.44 154.94 C-98.68 155.48 -97.92 156.03 -97.14 156.59 C-81.35 166.99 -62.25 168.4 -43.92 165.27 C-25.37 160.88 -9.42 147.31 0.62 131.31 C1.26 130.2 1.9 129.09 2.56 127.94 C8.63 128.38 14.45 129.47 20.38 130.81 C21.12 130.97 21.86 131.14 22.62 131.3 C26.56 132.22 29.55 133.17 32.56 135.94 C32.12 136.5 31.68 137.06 31.22 137.63 C29.55 139.95 28.34 142.26 27.06 144.81 C15.17 166.81 -6.01 184.32 -29.75 192.12 C-54.51 199.22 -82.75 198.02 -105.7 185.71 C-114.28 180.91 -122.16 175.58 -129.44 168.94 C-130.21 168.23 -130.99 167.52 -131.79 166.8 C-152.1 147.39 -163.06 120.11 -163.79 92.18 C-164 65.58 -156.19 38.29 -138.44 17.94 C-137.75 17.13 -137.06 16.32 -136.35 15.49 C-101.94 -23.94 -42.36 -33.02 0 0 Z " fill="#000102" transform="translate(612.4375,351.0625)"/>
<path d="M0 0 C1.29 -0.01 2.57 -0.02 3.9 -0.03 C5.31 -0.03 6.73 -0.03 8.15 -0.03 C9.6 -0.03 11.06 -0.03 12.52 -0.04 C15.59 -0.05 18.66 -0.05 21.73 -0.04 C24.85 -0.04 27.97 -0.04 31.09 -0.06 C61.31 -0.24 88.26 1.08 111.55 22.9 C128.05 39.62 136.93 61.33 137.14 84.71 C137 105.2 131.19 122.66 117.89 138.27 C117.14 139.24 116.38 140.21 115.61 141.2 C112.65 144.75 109.16 147.42 105.45 150.15 C104.75 150.67 104.05 151.19 103.33 151.72 C96.81 156.48 90.05 160.54 82.89 164.27 C81.81 164.84 81.81 164.84 80.71 165.42 C73.96 168.88 67.04 171.81 60.02 174.65 C58.23 175.38 58.23 175.38 56.41 176.12 C49.59 178.87 42.74 181.44 35.77 183.77 C27.81 186.45 20.14 189.64 12.45 193.02 C10.84 193.73 10.84 193.73 9.2 194.46 C3.59 196.94 3.59 196.94 -1.75 199.93 C-4.11 201.27 -4.11 201.27 -7.11 201.27 C-8.65 198.19 -8.25 194.95 -8.24 191.57 C-8.24 190.76 -8.25 189.96 -8.25 189.13 C-8.25 186.42 -8.25 183.71 -8.25 181 C-8.26 179.06 -8.26 177.12 -8.26 175.18 C-8.27 169.91 -8.27 164.63 -8.27 159.36 C-8.28 154.96 -8.28 150.56 -8.28 146.17 C-8.29 135.8 -8.29 125.43 -8.29 115.07 C-8.29 104.35 -8.3 93.64 -8.32 82.93 C-8.33 73.75 -8.34 64.56 -8.34 55.38 C-8.34 49.89 -8.34 44.4 -8.35 38.91 C-8.36 33.75 -8.36 28.59 -8.35 23.43 C-8.35 21.53 -8.35 19.63 -8.36 17.73 C-8.37 15.15 -8.36 12.56 -8.35 9.98 C-8.36 9.22 -8.37 8.46 -8.37 7.68 C-8.32 0.78 -6.62 0.03 0 0 Z " fill="#F2F3F4" transform="translate(211.107666015625,199.725341796875)"/>
<path d="M0 0 C0.99 0 1.98 0 3 0 C3.64 19.9 3.53 37.62 -2.39 56.82 C-5.31 67.27 -2.08 77.5 2.98 86.79 C6.15 92.23 9.7 97.38 13.58 102.34 C14.21 103.14 14.21 103.14 14.84 103.95 C15.99 105.41 17.17 106.85 18.35 108.28 C20.34 111.56 20.65 113.23 20 117 C16.18 121.84 10.74 125.76 5 128 C4.34 128 3.68 128 3 128 C3.42 131.49 4.21 133.34 6.12 136.38 C7.81 139.21 8 140.12 8.06 143.62 C6.82 147.58 5.13 149.35 2 152 C2.33 152.64 2.66 153.28 3 153.94 C4.33 158.03 4.77 161.74 4 166 C1.49 168.81 -0.87 169.94 -4.25 171.56 C-7.3 172.75 -7.3 172.75 -8 176 C-7.68 178.16 -7.68 178.16 -7.06 180.5 C-5.6 187.38 -4.56 194.01 -7.69 200.5 C-11.76 204.9 -15.69 206.74 -21.59 207.2 C-32.89 207.39 -42.48 204.48 -52.75 200.07 C-67.1 193.99 -84.71 196.09 -98.91 201.76 C-106.69 205.12 -113.72 209.31 -120 215 C-120.5 215.45 -121 215.9 -121.51 216.37 C-137.15 230.7 -146.48 248.68 -152 269 C-152.33 267.68 -152.66 266.36 -153 265 C-153.66 265 -154.32 265 -155 265 C-157.03 246 -158.61 227.12 -159 208 C-159.02 207.28 -159.03 206.56 -159.05 205.82 C-159.14 201.54 -159.1 197.28 -159 193 C-158.98 192.15 -158.96 191.3 -158.95 190.42 C-158.24 160.15 -156.53 122.95 -134 100 C-120.34 87.74 -100.96 82.44 -83.97 76.58 C-66.64 70.63 -66.64 70.63 -50 63 C-49.36 62.67 -48.71 62.33 -48.05 61.99 C-38.03 56.67 -29.96 50.04 -22 42 C-21.31 41.32 -20.63 40.65 -19.92 39.95 C-9.7 29.18 -3.63 14.17 0 0 Z " fill="#6D6FAE" transform="translate(386,347)"/>
<path d="M0 0 C17.46 -0.67 33.53 4.41 46.95 15.69 C62.65 30.73 71.88 52 72.5 73.62 C72.88 99.07 69.42 120.36 52.26 140.19 C38.24 154.51 23.01 160.29 3.14 160.57 C-16.87 160.5 -33.52 154.35 -48.74 141.19 C-49.48 140.59 -50.23 139.98 -51 139.36 C-65.77 127.03 -73.99 109.4 -76.49 90.5 C-76.6 89.07 -76.68 87.63 -76.74 86.19 C-76.79 85.31 -76.84 84.42 -76.89 83.51 C-77.61 61.1 -68.64 40.11 -53.57 23.9 C-39.36 9.29 -20.19 1.41 0 0 Z " fill="#F2F3F4" transform="translate(779.73828125,358.80859375)"/>
<path d="M0 0 C1.08 0.01 2.16 0.02 3.27 0.03 C5.02 0.04 5.02 0.04 6.8 0.05 C8.03 0.07 9.25 0.08 10.51 0.1 C11.74 0.11 12.97 0.12 14.24 0.13 C17.29 0.15 20.34 0.19 23.39 0.23 C24.64 2.74 24.51 4.44 24.51 7.25 C24.51 8.32 24.51 9.39 24.52 10.49 C24.51 12.27 24.51 12.27 24.51 14.08 C24.51 15.34 24.51 16.59 24.51 17.88 C24.51 21.36 24.51 24.84 24.5 28.33 C24.5 32.08 24.5 35.84 24.5 39.59 C24.5 46.1 24.5 52.6 24.49 59.11 C24.48 68.52 24.48 77.92 24.48 87.33 C24.48 102.59 24.47 117.85 24.46 133.12 C24.45 147.94 24.45 162.77 24.44 177.6 C24.44 178.97 24.44 178.97 24.44 180.37 C24.44 184.95 24.44 189.53 24.44 194.12 C24.43 232.15 24.41 270.19 24.39 308.23 C19.93 308.28 15.47 308.32 11.01 308.35 C9.74 308.37 8.47 308.39 7.16 308.4 C5.34 308.41 5.34 308.41 3.49 308.42 C2.37 308.43 1.25 308.44 0.09 308.45 C-2.61 308.23 -2.61 308.23 -4.61 306.23 C-4.86 304.03 -4.86 304.03 -4.87 301.24 C-4.87 300.18 -4.88 299.12 -4.88 298.02 C-4.88 296.85 -4.87 295.67 -4.87 294.46 C-4.87 293.22 -4.87 291.98 -4.88 290.7 C-4.88 287.24 -4.88 283.78 -4.88 280.32 C-4.87 276.6 -4.88 272.87 -4.88 269.15 C-4.89 261.85 -4.89 254.55 -4.88 247.25 C-4.88 241.31 -4.88 235.38 -4.88 229.45 C-4.88 228.61 -4.88 227.77 -4.88 226.9 C-4.88 225.19 -4.88 223.47 -4.88 221.76 C-4.89 205.69 -4.88 189.62 -4.87 173.55 C-4.86 159.75 -4.87 145.95 -4.87 132.15 C-4.89 116.14 -4.89 100.13 -4.88 84.12 C-4.88 82.41 -4.88 80.71 -4.88 79 C-4.88 78.16 -4.88 77.32 -4.88 76.46 C-4.88 70.53 -4.88 64.6 -4.89 58.68 C-4.89 51.46 -4.89 44.24 -4.88 37.02 C-4.87 33.33 -4.87 29.65 -4.88 25.96 C-4.89 21.97 -4.88 17.98 -4.87 14 C-4.87 12.82 -4.88 11.64 -4.88 10.43 C-4.88 9.37 -4.87 8.31 -4.87 7.22 C-4.87 6.29 -4.86 5.37 -4.86 4.42 C-4.48 1.02 -3.34 0.29 0 0 Z " fill="#000102" transform="translate(1070.61376953125,233.77294921875)"/>
<path d="M0 0 C0 0.66 0 1.32 0 2 C0.99 2.33 1.98 2.66 3 3 C2.62 3.8 2.25 4.6 1.86 5.42 C-1.26 12.14 -4.24 18.87 -7.02 25.73 C-8 28 -8 28 -9 29 C-10.38 28.9 -11.75 28.75 -13.12 28.56 C-26.79 27.15 -37.28 28.12 -50 33 C-50.93 33.35 -51.85 33.7 -52.81 34.06 C-66.16 39.89 -76.48 52.29 -81.81 65.56 C-85.35 75.03 -86.3 83.7 -86.32 93.77 C-86.33 95.02 -86.34 96.27 -86.35 97.56 C-86.37 100.96 -86.39 104.36 -86.4 107.76 C-86.42 111.32 -86.45 114.89 -86.47 118.45 C-86.52 125.19 -86.56 131.92 -86.59 138.66 C-86.63 146.33 -86.68 154 -86.73 161.68 C-86.83 177.45 -86.92 193.23 -87 209 C-91.46 209.06 -95.92 209.09 -100.38 209.12 C-101.65 209.14 -102.92 209.16 -104.23 209.18 C-105.44 209.18 -106.65 209.19 -107.9 209.2 C-109.02 209.21 -110.14 209.22 -111.29 209.23 C-114 209 -114 209 -116 207 C-116.2 204.35 -116.27 201.8 -116.25 199.14 C-116.26 197.91 -116.26 197.91 -116.26 196.65 C-116.27 193.89 -116.27 191.12 -116.26 188.35 C-116.26 186.38 -116.27 184.4 -116.27 182.42 C-116.28 177.04 -116.27 171.66 -116.27 166.28 C-116.26 160.65 -116.27 155.03 -116.27 149.41 C-116.28 139.97 -116.27 130.52 -116.26 121.08 C-116.25 110.15 -116.25 99.22 -116.26 88.29 C-116.27 78.92 -116.27 69.55 -116.27 60.18 C-116.27 54.58 -116.27 48.98 -116.27 43.37 C-116.28 38.11 -116.27 32.84 -116.26 27.58 C-116.26 25.64 -116.26 23.7 -116.27 21.76 C-116.27 19.13 -116.26 16.49 -116.25 13.86 C-116.26 13.08 -116.26 12.31 -116.27 11.51 C-116.23 6.23 -116.23 6.23 -114 4 C-111.4 3.76 -111.4 3.76 -108.15 3.77 C-106.99 3.77 -105.83 3.77 -104.63 3.78 C-103.41 3.79 -102.19 3.8 -100.94 3.81 C-99.1 3.81 -99.1 3.81 -97.23 3.81 C-88.14 3.86 -88.14 3.86 -87 5 C-86.85 6.68 -86.77 8.37 -86.72 10.06 C-86.68 11.08 -86.64 12.11 -86.61 13.17 C-86.55 14.79 -86.55 14.79 -86.5 16.44 C-86.43 18.56 -86.36 20.69 -86.28 22.81 C-86.25 23.76 -86.22 24.7 -86.19 25.68 C-86.14 28.02 -86.14 28.02 -85 30 C-84.56 29.38 -84.12 28.77 -83.67 28.13 C-71.26 11.56 -51.74 1.87 -31.58 -1.59 C-20.92 -2.82 -10.48 -2.22 0 0 Z " fill="#000102" transform="translate(1040,333)"/>
<path d="M0 0 C0.76 0.58 1.52 1.17 2.3 1.77 C8.94 7.22 13.42 13.85 18 21 C18.87 22.31 18.87 22.31 19.76 23.64 C25.96 33.31 29 43.56 29 55 C-18.52 55 -66.04 55 -115 55 C-117.58 42.12 -108.9 27.25 -101.95 16.7 C-90.36 0.62 -74.09 -10.19 -54.62 -14.25 C-34.81 -17.37 -15.72 -12.37 0 0 Z " fill="#F2F3F4" transform="translate(595,372)"/>
</svg>
